HIERARCHY
ROOT reference
{
  OFFSET 0 0 0
  CHANNELS 6 Xposition Yposition Zposition Zrotation Xrotation Yrotation
  JOINT Hips
  {
    OFFSET 352.076 86.5813 226.294
    CHANNELS 3 Zrotation Xrotation Yrotation
    JOINT RightUpLeg
    {
      OFFSET -9.24446 -1.53332 -0.0100408
      CHANNELS 3 Zrotation Xrotation Yrotation
      JOINT RightLeg
      {
        OFFSET 0.0379954 -41.8775 0.0555708
        CHANNELS 3 Zrotation Xrotation Yrotation
        JOINT RightFoot
        {
          OFFSET 0.0737403 -43.7597 -0.208372
          CHANNELS 3 Zrotation Xrotation Yrotation
          End Site
          {
            OFFSET 0 -7.69 17.5
          }
        }
      }
    }
    JOINT LeftUpLeg
    {
      OFFSET 9.31004 -1.65148 -0.0333589
      CHANNELS 3 Zrotation Xrotation Yrotation
      JOINT LeftLeg
      {
        OFFSET 0.0881386 -41.8624 -0.0616493
        CHANNELS 3 Zrotation Xrotation Yrotation
        JOINT LeftFoot
        {
          OFFSET 0.763074 -39.9619 0.249975
          CHANNELS 3 Zrotation Xrotation Yrotation
          End Site
          {
            OFFSET 0 -7.69 17.5
          }
        }
      }
    }
    JOINT Spine
    {
      OFFSET 0.105097 14.2958 0.096313
      CHANNELS 3 Zrotation Xrotation Yrotation
      JOINT Spine1
      {
        OFFSET 0.0609256 9.72986 0.0283835
        CHANNELS 3 Zrotation Xrotation Yrotation
        JOINT Spine2
        {
          OFFSET 0.0349843 10.1145 -0.0203086
          CHANNELS 3 Zrotation Xrotation Yrotation
          JOINT Spine3
          {
            OFFSET 0.0323734 9.71864 0.0196425
            CHANNELS 3 Zrotation Xrotation Yrotation
            JOINT Neck
            {
              OFFSET 0.219168 10.3708 0.0833364
              CHANNELS 3 Zrotation Xrotation Yrotation
              JOINT Head
              {
                OFFSET 0.200748 9.48753 0.0966912
                CHANNELS 3 Zrotation Xrotation Yrotation
                End Site
                {
                  OFFSET 0 15.95 0
                }
              }
            }
            JOINT RightShoulder
            {
              OFFSET -3.14734 6.94135 0.063802
              CHANNELS 3 Zrotation Xrotation Yrotation
              JOINT RightArm
              {
                OFFSET -12.765 0.137663 0.228635
                CHANNELS 3 Zrotation Xrotation Yrotation
                JOINT RightForeArm
                {
                  OFFSET -26.5344 -0.389186 -0.00603507
                  CHANNELS 3 Zrotation Xrotation Yrotation
                  JOINT RightHand
                  {
                    OFFSET -26.1352 -0.0585664 0.0704552
                    CHANNELS 3 Zrotation Xrotation Yrotation
                    JOINT RightHandThumb1
                    {
                      OFFSET -2.48905 0.190105 3.12053
                      CHANNELS 3 Zrotation Xrotation Yrotation
                      JOINT RightHandThumb2
                      {
                        OFFSET -3.68274 0 0
                        CHANNELS 3 Zrotation Xrotation Yrotation
                        JOINT RightHandThumb3
                        {
                          OFFSET -2.55832 0 0
                          CHANNELS 3 Zrotation Xrotation Yrotation
                          End Site
                          {
                            OFFSET -2.194 0 0
                          }
                        }
                      }
                    }
                    JOINT RightInHandIndex
                    {
                      OFFSET -3.22368 0.508421 1.97842
                      CHANNELS 3 Zrotation Xrotation Yrotation
                      JOINT RightHandIndex1
                      {
                        OFFSET -5.21684 -0.091368 0.999158
                        CHANNELS 3 Zrotation Xrotation Yrotation
                        JOINT RightHandIndex2
                        {
                          OFFSET -3.61937 0 0
                          CHANNELS 3 Zrotation Xrotation Yrotation
                          JOINT RightHandIndex3
                          {
                            OFFSET -2.0521 0 0
                            CHANNELS 3 Zrotation Xrotation Yrotation
                            End Site
                            {
                              OFFSET -1.805 0 0
                            }
                          }
                        }
                      }
                    }
                    JOINT RightInHandMiddle
                    {
                      OFFSET -3.38211 0.517263 0.756737
                      CHANNELS 3 Zrotation Xrotation Yrotation
                      JOINT RightHandMiddle1
                      {
                        OFFSET -5.17411 -0.084 0.313895
                        CHANNELS 3 Zrotation Xrotation Yrotation
                        JOINT RightHandMiddle2
                        {
                          OFFSET -3.94947 0 0
                          CHANNELS 3 Zrotation Xrotation Yrotation
                          JOINT RightHandMiddle3
                          {
                            OFFSET -2.47579 0 0
                            CHANNELS 3 Zrotation Xrotation Yrotation
                            End Site
                            {
                              OFFSET -1.975 0 0
                            }
                          }
                        }
                      }
                    }
                    JOINT RightInHandRing
                    {
                      OFFSET -3.36516 0.537895 -0.128947
                      CHANNELS 3 Zrotation Xrotation Yrotation
                      JOINT RightHandRing1
                      {
                        OFFSET -4.63474 -0.022105 -0.478947
                        CHANNELS 3 Zrotation Xrotation Yrotation
                        JOINT RightHandRing2
                        {
                          OFFSET -3.44238 0 0
                          CHANNELS 3 Zrotation Xrotation Yrotation
                          JOINT RightHandRing3
                          {
                            OFFSET -2.3881 0 0
                            CHANNELS 3 Zrotation Xrotation Yrotation
                            End Site
                            {
                              OFFSET -1.857 0 0
                            }
                          }
                        }
                      }
                    }
                    JOINT RightInHandPinky
                    {
                      OFFSET -3.16105 0.469368 -1.20179
                      CHANNELS 3 Zrotation Xrotation Yrotation
                      JOINT RightHandPinky1
                      {
                        OFFSET -4.14105 -0.022105 -1.09053
                        CHANNELS 3 Zrotation Xrotation Yrotation
                        JOINT RightHandPinky2
                        {
                          OFFSET -2.75653 0 0
                          CHANNELS 3 Zrotation Xrotation Yrotation
                          JOINT RightHandPinky3
                          {
                            OFFSET -1.74189 0 0
                            CHANNELS 3 Zrotation Xrotation Yrotation
                            End Site
                            {
                              OFFSET -1.645 0 0
                            }
                          }
                        }
                      }
                    }
                  }
                }
              }
            }
            JOINT LeftShoulder
            {
              OFFSET 3.26179 6.89719 -0.0373062
              CHANNELS 3 Zrotation Xrotation Yrotation
              JOINT LeftArm
              {
                OFFSET 12.4839 0.0196156 -0.0323257
                CHANNELS 3 Zrotation Xrotation Yrotation
                JOINT LeftForeArm
                {
                  OFFSET 26.5039 -0.120667 0.247609
                  CHANNELS 3 Zrotation Xrotation Yrotation
                  JOINT LeftHand
                  {
                    OFFSET 25.9984 -0.032285 0.00286418
                    CHANNELS 3 Zrotation Xrotation Yrotation
                    JOINT LeftHandThumb1
                    {
                      OFFSET 2.48905 0.190105 3.12053
                      CHANNELS 3 Zrotation Xrotation Yrotation
                      JOINT LeftHandThumb2
                      {
                        OFFSET 3.68274 0 0
                        CHANNELS 3 Zrotation Xrotation Yrotation
                        JOINT LeftHandThumb3
                        {
                          OFFSET 2.55832 0 0
                          CHANNELS 3 Zrotation Xrotation Yrotation
                          End Site
                          {
                            OFFSET 2.194 0 0
                          }
                        }
                      }
                    }
                    JOINT LeftInHandIndex
                    {
                      OFFSET 3.22368 0.508421 1.97842
                      CHANNELS 3 Zrotation Xrotation Yrotation
                      JOINT LeftHandIndex1
                      {
                        OFFSET 5.21684 -0.091368 0.999158
                        CHANNELS 3 Zrotation Xrotation Yrotation
                        JOINT LeftHandIndex2
                        {
                          OFFSET 3.61937 0 0
                          CHANNELS 3 Zrotation Xrotation Yrotation
                          JOINT LeftHandIndex3
                          {
                            OFFSET 2.0521 0 0
                            CHANNELS 3 Zrotation Xrotation Yrotation
                            End Site
                            {
                              OFFSET 1.805 0 0
                            }
                          }
                        }
                      }
                    }
                    JOINT LeftInHandMiddle
                    {
                      OFFSET 3.38211 0.517263 0.756737
                      CHANNELS 3 Zrotation Xrotation Yrotation
                      JOINT LeftHandMiddle1
                      {
                        OFFSET 5.17411 -0.084 0.313895
                        CHANNELS 3 Zrotation Xrotation Yrotation
                        JOINT LeftHandMiddle2
                        {
                          OFFSET 3.94947 0 0
                          CHANNELS 3 Zrotation Xrotation Yrotation
                          JOINT LeftHandMiddle3
                          {
                            OFFSET 2.47579 0 0
                            CHANNELS 3 Zrotation Xrotation Yrotation
                            End Site
                            {
                              OFFSET 1.975 0 0
                            }
                          }
                        }
                      }
                    }
                    JOINT LeftInHandRing
                    {
                      OFFSET 3.36516 0.537895 -0.128947
                      CHANNELS 3 Zrotation Xrotation Yrotation
                      JOINT LeftHandRing1
                      {
                        OFFSET 4.63474 -0.022105 -0.478947
                        CHANNELS 3 Zrotation Xrotation Yrotation
                        JOINT LeftHandRing2
                        {
                          OFFSET 3.44238 0 0
                          CHANNELS 3 Zrotation Xrotation Yrotation
                          JOINT LeftHandRing3
                          {
                            OFFSET 2.3881 0 0
                            CHANNELS 3 Zrotation Xrotation Yrotation
                            End Site
                            {
                              OFFSET 1.857 0 0
                            }
                          }
                        }
                      }
                    }
                    JOINT LeftInHandPinky
                    {
                      OFFSET 3.16105 0.469368 -1.20179
                      CHANNELS 3 Zrotation Xrotation Yrotation
                      JOINT LeftHandPinky1
                      {
                        OFFSET 4.14105 -0.022105 -1.09053
                        CHANNELS 3 Zrotation Xrotation Yrotation
                        JOINT LeftHandPinky2
                        {
                          OFFSET 2.75653 0 0
                          CHANNELS 3 Zrotation Xrotation Yrotation
                          JOINT LeftHandPinky3
                          {
                            OFFSET 1.74189 0 0
                            CHANNELS 3 Zrotation Xrotation Yrotation
                            End Site
                            {
                              OFFSET 1.645 0 0
                            }
                          }
                        }
                      }
                    }
                  }
                }
              }
            }
          }
        }
      }
    }
  }
}
MOTION
Frames: 2
Frame Time: 0.00833333
3.150000000000000000e+03 0.000000000000000000e+00 0.000000000000000000e+00 0.000000000000000000e+00 0.000000000000000000e+00 0.000000000000000000e+00 2.399410000000000309e+01 1.123830000000000240e+01 -7.289400000000001967e+01 -2.689389999999999503e+01 -5.367980000000000018e+01 -2.752229999999999777e+01 -1.320809999999999818e+00 2.597429999999999595e+01 -1.070649999999999835e+01 1.398259999999999970e+01 8.692230000000002121e+00 2.825890000000000057e+01 2.223570000000000135e+01 -4.478349999999999653e+01 1.019539999999999935e+01 -6.275979999999989900e-01 3.716380000000000905e+01 3.301359999999998962e+00 -1.479939999999999856e+01 -1.603140000000000498e+01 -2.466730000000000445e+01 -7.427550000000000097e+00 1.238850000000000051e+01 1.427990000000000137e+01 -1.567889999999999784e+00 3.227280000000000371e+00 3.373400000000000176e+00 -2.616870000000000474e+00 5.186910000000001020e+00 5.496899999999999231e+00 -3.571460000000000745e-01 -1.612130000000000229e-01 -2.665099999999998026e-01 -3.574730000000000407e-01 -1.624430000000001151e-01 -2.661429999999995744e-01 -6.579349999999999810e+00 -3.046799999999999731e+00 -4.721550000000000580e+00 3.163980000000000459e+00 -8.863680000000000447e+00 1.664170000000000016e+01 7.872039999999999793e+01 -6.697519999999997253e+00 4.361339999999999861e+01 5.218939999999999912e+01 -4.875230000000000530e+01 5.057509999999999195e+01 1.561820000000000164e+01 -1.848030000000000328e+01 -2.680010000000000048e+01 2.818400000000000105e+01 1.072940000000000005e+01 1.915919999999999845e+01 -1.672040000000000088e-14 7.056860000000000052e-15 -1.000000000000000000e+01 -2.335930000000000390e-14 6.038080000000002063e-15 -1.000000000000000000e+01 6.361109999999998952e-15 -6.559890000000001760e-15 3.975690000000000513e-16 1.998179999999999978e+01 8.718970000000000331e-01 2.396399999999999864e+00 2.400000000000000000e+01 1.729430000000000336e-14 9.924319999999999358e-14 2.000000000000000000e+01 3.292369999999998711e-15 -3.694909999999999449e-14 6.361109999999998952e-15 -6.559890000000001760e-15 3.975690000000000513e-16 2.000000000000000000e+01 1.123129999999999931e-14 3.856420000000000293e-14 2.400000000000000000e+01 2.136940000000000207e-14 1.049579999999999830e-13 2.000000000000000000e+01 -1.570400000000000117e-14 -4.214230000000000007e-14 6.361109999999998952e-15 -6.559890000000001760e-15 3.975690000000000513e-16 1.997479999999999833e+01 -1.025649999999999951e+00 -2.819380000000000219e+00 2.400000000000000000e+01 2.445050000000000396e-14 1.025730000000000013e-13 2.000000000000000000e+01 -6.758679999999999612e-15 -3.101040000000000234e-14 6.361109999999998952e-15 -6.559890000000001760e-15 3.975690000000000513e-16 1.978150000000000119e+01 -3.009479999999999933e+00 -8.305149999999999366e+00 2.400000000000000000e+01 2.186629999999999956e-14 8.269439999999998941e-14 2.000000000000000000e+01 7.951389999999991338e-16 -2.226389999999999639e-14 1.324649999999999750e+01 -1.295560000000000045e+01 -3.359389999999999077e+01 -2.968999999999999773e+01 3.298890000000000811e+01 -7.326509999999998968e+01 8.216210000000000235e+00 -4.694659999999998945e+01 8.944670000000002119e+00 -2.180930000000000035e+01 -1.927810000000000201e+01 1.121969999999999779e+01 -2.818400000000000105e+01 1.072940000000000005e+01 -1.915919999999999845e+01 1.137129999999999606e-14 -9.541660000000000512e-15 1.000000000000000000e+01 2.478050000000000104e-14 -1.232459999999999994e-14 1.000000000000000000e+01 9.541660000000000512e-15 0.000000000000000000e+00 0.000000000000000000e+00 -1.998179999999999978e+01 8.718970000000000331e-01 -2.396399999999999864e+00 -2.400000000000000000e+01 -2.385420000000000017e-15 2.067360000000000366e-14 -2.000000000000000000e+01 -2.435110000000000238e-15 1.908330000000000147e-14 9.541660000000000512e-15 0.000000000000000000e+00 0.000000000000000000e+00 -2.000000000000000000e+01 -1.192710000000000008e-15 1.192710000000000087e-14 -2.400000000000000000e+01 -7.951389999999999226e-16 2.146869999999999641e-14 -2.000000000000000000e+01 -5.739909999999999823e-15 2.782990000000000203e-14 9.541660000000000512e-15 0.000000000000000000e+00 0.000000000000000000e+00 -1.997479999999999833e+01 -1.025649999999999951e+00 2.819380000000000219e+00 -2.400000000000000000e+01 -7.951389999999999226e-16 1.749310000000000020e-14 -2.000000000000000000e+01 -4.323570000000000163e-15 2.584199999999999669e-14 9.541660000000000512e-15 0.000000000000000000e+00 0.000000000000000000e+00 -1.978150000000000119e+01 -3.009479999999999933e+00 8.305149999999999366e+00 -2.400000000000000000e+01 4.820530000000001044e-15 2.375479999999999701e-14 -2.000000000000000000e+01 -9.420529999999998482e-15 3.687459999999999693e-14
3.150000000000000000e+03 0.000000000000000000e+00 0.000000000000000000e+00 0.000000000000000000e+00 0.000000000000000000e+00 0.000000000000000000e+00 2.395449999999999591e+01 1.119229999999999947e+01 -7.315300000000002001e+01 -2.673199999999999932e+01 -5.370539999999999736e+01 -2.734680000000000888e+01 -1.300259999999999749e+00 2.590260000000000318e+01 -1.069989999999999775e+01 1.397669999999999924e+01 8.802619999999999223e+00 2.839600000000000435e+01 2.231419999999999959e+01 -4.470529999999999404e+01 1.030590000000000472e+01 -7.146020000000028460e-01 3.727429999999998955e+01 3.421759999999999025e+00 -1.470649999999999835e+01 -1.609890000000000043e+01 -2.458620000000000161e+01 -7.338430000000000675e+00 1.235130000000000017e+01 1.409789999999999921e+01 -1.549960000000000004e+00 3.210910000000000153e+00 3.330029999999999824e+00 -2.587659999999999627e+00 5.160110000000001307e+00 5.429009999999999891e+00 -3.665149999999999797e-01 -1.612139999999999684e-01 -2.399710000000001564e-01 -3.668510000000000382e-01 -1.624440000000000328e-01 -2.395860000000027412e-01 -6.734399999999999054e+00 -3.020749999999999602e+00 -4.248430000000002593e+00 3.204839999999999023e+00 -8.662300000000000111e+00 1.643110000000000070e+01 7.922959999999999070e+01 -7.118639999999999191e+00 4.323740000000000805e+01 5.324360000000000070e+01 -4.803970000000000340e+01 5.225639999999999930e+01 1.532619999999999827e+01 -1.850060000000000215e+01 -2.703969999999999629e+01 2.818400000000000105e+01 1.072940000000000005e+01 1.915919999999999845e+01 -1.717610000000000077e-14 4.472660000000001172e-15 -1.000000000000000000e+01 -3.346190000000000204e-14 1.056039999999999860e-14 -1.000000000000000000e+01 6.361110000000001319e-15 -3.230249999999999586e-15 8.945309999999997833e-16 1.998179999999999978e+01 8.718970000000000331e-01 2.396399999999999864e+00 2.400000000000000000e+01 -2.683589999999999890e-15 1.789059999999999927e-15 2.000000000000000000e+01 2.584199999999999669e-15 -9.541660000000002090e-15 6.361110000000001319e-15 -3.230249999999999586e-15 8.945309999999997833e-16 2.000000000000000000e+01 9.939229999999901776e-17 5.466579999999999778e-15 2.400000000000000000e+01 -8.324110000000001070e-15 2.077299999999999893e-14 2.000000000000000000e+01 -1.411370000000000213e-14 -6.559890000000000183e-15 6.361110000000001319e-15 -3.230249999999999586e-15 8.945309999999997833e-16 1.997479999999999833e+01 -1.025649999999999951e+00 -2.819380000000000219e+00 2.400000000000000000e+01 1.302039999999999834e-14 4.293750000000000006e-14 2.000000000000000000e+01 -3.180549999999999587e-15 -1.272219999999999993e-14 6.361110000000001319e-15 -3.230249999999999586e-15 8.945309999999997833e-16 1.978150000000000119e+01 -3.009479999999999933e+00 -8.305149999999999366e+00 2.400000000000000000e+01 1.590280000000000116e-14 4.134720000000000733e-14 2.000000000000000000e+01 1.192709999999999929e-14 8.746529999999998969e-15 1.326839999999999975e+01 -1.294439999999999813e+01 -3.383279999999999887e+01 -2.975310000000000343e+01 3.297929999999999495e+01 -7.322910000000000252e+01 8.120229999999995840e+00 -4.549349999999999739e+01 8.540309999999990964e+00 -2.192760000000000531e+01 -1.919109999999999872e+01 1.119929999999999914e+01 -2.818400000000000105e+01 1.072940000000000005e+01 -1.915919999999999845e+01 1.642850000000000416e-14 -1.590280000000000274e-15 1.000000000000000000e+01 7.020060000000002294e-15 -3.180549999999999982e-15 1.000000000000000000e+01 6.361109999999998952e-15 3.975690000000000513e-16 3.975690000000000513e-16 -1.998179999999999978e+01 8.718970000000000331e-01 -2.396399999999999864e+00 -2.400000000000000000e+01 -5.963539999999999870e-16 1.311979999999999676e-14 -2.000000000000000000e+01 -2.397839999999999536e-15 1.391489999999999740e-14 6.361109999999998952e-15 3.975690000000000513e-16 3.975690000000000513e-16 -2.000000000000000000e+01 1.192710000000000403e-15 1.292100000000000308e-14 -2.400000000000000000e+01 -6.957460000000000448e-16 1.311979999999999992e-14 -2.000000000000000000e+01 -9.939230000000004328e-16 5.565969999999999999e-15 6.361109999999998952e-15 3.975690000000000513e-16 3.975690000000000513e-16 -1.997479999999999833e+01 -1.025649999999999951e+00 2.819380000000000219e+00 -2.400000000000000000e+01 -4.721140000000000034e-15 1.162889999999999930e-14 -2.000000000000000000e+01 -1.006350000000000270e-15 4.770830000000001045e-15 6.361109999999998952e-15 3.975690000000000513e-16 3.975690000000000513e-16 -1.978150000000000119e+01 -3.009479999999999933e+00 8.305149999999999366e+00 -2.400000000000000000e+01 0.000000000000000000e+00 9.541660000000000512e-15 -2.000000000000000000e+01 -3.217830000000000461e-15 9.939229999999998017e-15
